<?xml version="1.0" encoding="UTF-8" standalone="no"?>
<!-- Created with Inkscape (http://www.inkscape.org/) -->

<svg
        width="262.46753mm"
        height="470.60559mm"
        viewBox="0 0 262.46752 470.60559"
        version="1.1"
        id="svg1"
        xml:space="preserve"
        xmlns="http://www.w3.org/2000/svg"
        xmlns:svg="http://www.w3.org/2000/svg"><defs
     id="defs1" />
    <g id="layer1"
       transform="translate(26.160678,85.597004)">
        <path
                style="fill:#000000"
                d="m -26.159898,286.4403 v -98.56829 l 1.85208,-0.25261 c 2.90453,-0.39615 10.00431,-2.20493 12.01913,-3.06207 4.2012197,-1.78725 7.7821797,-4.24642 13.4463197,-9.23404 3.703,-3.26072 6.4728,-5.11666 11.0863903,-7.42858 3.98862,-1.99875 8.61067,-4.94075 10.65464,-6.78181 0.82612,-0.74411 3.13281,-3.35009 5.12598,-5.79107 4.97067,-6.08741 7.33647,-8.22529 9.92272,-8.96678 1.12122,-0.32146 2.54745,-0.88015 3.16941,-1.24154 l 1.13083,-0.65706 0.74053,1.19821 c 1.00738,1.62997 4.02716,4.29141 5.97773,5.26839 2.2906,1.14729 3.68166,1.53253 6.9936,1.9368 5.43378,0.66328 9.04539,2.44085 13.7415,6.76334 l 1.4928,1.37404 -0.39342,1.7044 c -0.42877,1.8575 -0.001,3.33334 1.17721,4.06506 0.79395,0.49292 2.09211,-0.20949 2.89303,-1.56535 0.58899,-0.99708 0.64066,-1.01298 1.62972,-0.50152 2.0122,1.04055 3.83767,0.54913 4.78821,-1.289 0.70729,-1.36776 0.4547,-2.88863 -0.93796,-5.64748 -0.56644,-1.12211 -1.02989,-2.57666 -1.02989,-3.23234 0,-0.65567 -0.1731,-1.6887 -0.38468,-2.29562 -0.54903,-1.57497 -0.21308,-2.17064 0.52325,-0.92775 0.34017,0.5742 1.20455,1.46401 1.92084,1.97736 0.96634,0.69254 1.41419,1.3515 1.73583,2.55406 0.24132,0.90228 0.98183,2.22768 1.67051,2.98996 0.93957,1.04 1.23703,1.6798 1.23703,2.66074 0,1.68561 0.77612,3.5006 1.80512,4.22133 1.021,0.71514 3.13377,0.77544 3.13377,0.0894 0,-0.36681 0.38722,-0.44218 1.58059,-0.30767 1.89094,0.21313 3.56929,-0.6406 3.17295,-1.614 -0.13237,-0.32511 -0.53057,-2.28217 -0.88487,-4.34903 -0.35431,-2.06686 -0.95381,-4.36874 -1.33222,-5.11528 -0.82944,-1.63637 -1.34683,-4.35596 -0.82869,-4.35596 0.40614,0 2.22431,1.79775 3.67147,3.63024 1.09979,1.39263 2.90628,2.3625 4.897938,2.62964 2.45248,0.32895 3.16192,-1.26963 1.5416,-3.47368 -0.48468,-0.65929 -1.41942,-2.31947 -2.0772,-3.68929 -0.65779,-1.36982 -1.830658,-3.2239 -2.606388,-4.12018 -0.77572,-0.89628 -1.9172,-2.51539 -2.53662,-3.59802 -1.26649,-2.21359 -2.69764,-3.43404 -4.77495,-4.07193 -0.77611,-0.23833 -1.9744,-0.79466 -2.66287,-1.2363 -0.68846,-0.44164 -2.39927,-1.21691 -3.80179,-1.72283 -3.57121,-1.2882 -4.23534,-1.68766 -6.23534,-3.75043 -2.84766,-2.93703 -3.50359,-3.13302 -11.20164,-3.34711 -4.53641,-0.12616 -5.45581,-0.26688 -9.43586,-1.44426 -7.75747,-2.29483 -11.69224,-2.92602 -18.87362,-3.02757 -4.35022,-0.0615 -6.11789,0.42135 -11.28888,3.08378 -2.13431,1.0989 -4.63131,2.38033 -5.5489,2.84761 -0.91759,0.46728 -3.45759,1.24432 -5.64445,1.72675 -4.09631,0.90366 -7.5433403,2.32385 -10.9867603,4.52658 -5.21862998,3.33831 -9.04353,4.62443 -18.5657297,6.24269 -3.58951,0.61003 -7.85679,1.4988 -9.46046,1.96298 -1.60366,0.46419 -3.24131,1.05882 -3.24032,0.87069 5e-4,-0.0941 7.8e-4,-51.709717 7.8e-4,-114.865763 V -85.597004 H 105.07344 236.30677 V 16.355787 118.30858 l -3.96875,0.004 c -4.49681,0.005 -6.31407,0.40011 -10.28484,2.23757 -1.57394,0.72833 -4.77038,1.74525 -7.33931,2.33493 -4.37535,1.00433 -6.8356,1.88852 -13.32984,4.79059 -2.89656,1.29438 -3.17808,1.34836 -8.45311,1.62078 -6.5655,0.33906 -8.28459,0.66866 -12.09001,2.31799 -2.48121,1.0754 -3.42137,1.2903 -6.27025,1.43326 -2.97915,0.14949 -3.62567,0.30925 -5.82083,1.43839 -2.34873,1.20812 -2.69363,1.28134 -7.05556,1.4979 -3.4881,0.17317 -5.21958,0.43787 -7.23194,1.10555 -1.45521,0.48282 -3.43959,1.06714 -4.40972,1.29848 -0.97014,0.23135 -2.74721,1.05969 -3.94904,1.84076 -2.67352,1.73753 -4.71767,2.38499 -8.39819,2.66002 -1.55222,0.11599 -3.13972,0.37981 -3.52777,0.58627 -0.41068,0.2185 -3.52784,0.40925 -7.45839,0.45641 -6.68012,0.0802 -6.77508,0.0921 -8.81944,1.11091 -1.13664,0.56644 -2.81161,1.21239 -3.72215,1.43545 -0.91055,0.22306 -2.18055,0.70563 -2.82223,1.07238 -0.64168,0.36674 -1.73611,0.84676 -2.43207,1.0667 -2.8865,0.91219 -3.67283,3.10666 -1.70616,4.76151 1.45102,1.22095 4.11826,1.34362 7.65442,0.35203 1.74643,-0.48972 7.29305,-1.25081 9.25185,-1.2695 0.48507,-0.005 1.91382,0.24108 3.175,0.54601 1.26118,0.30493 2.97908,0.56 3.81756,0.56681 0.8594,0.007 1.75194,0.23983 2.04581,0.5337 0.28672,0.28672 0.84322,0.74678 1.23666,1.02236 0.71163,0.49845 0.71054,0.50867 -0.20941,1.96597 -0.87481,1.38579 -4.69194,4.25148 -5.66302,4.25148 -0.23479,0 -0.84518,0.32902 -1.35642,0.73116 -1.77865,1.39909 -0.84384,4.55671 1.70742,5.76736 1.06807,0.50683 1.27037,0.76147 1.09867,1.38288 -0.58957,2.13364 -0.6247,5.76845 -0.0736,7.61666 0.31424,1.05386 0.57134,2.83361 0.57134,3.955 0,1.64316 0.14985,2.17851 0.77207,2.7582 0.96805,0.90187 2.4273,0.92193 3.50632,0.0482 0.75634,-0.61245 0.91709,-0.62543 1.8392,-0.14859 2.06406,1.06736 4.11296,-0.94229 4.11296,-4.03417 0,-0.90885 0.43078,-2.22229 1.23473,-3.76468 0.67909,-1.30286 1.23472,-2.74336 1.23472,-3.20112 0,-0.52318 0.39534,-1.1138 1.06447,-1.59026 0.58546,-0.41689 1.37219,-1.34051 1.7483,-2.0525 0.92974,-1.76005 0.88596,-0.62986 -0.0523,1.35131 -0.85922,1.81418 -0.95621,4.38036 -0.28735,7.60225 0.54276,2.61445 1.91331,4.13879 3.573,3.97391 1.68074,-0.16697 2.49685,-1.51259 2.67573,-4.41177 0.0815,-1.32104 0.1765,-2.72647 0.2111,-3.12319 0.0346,-0.39672 0.38042,-1.19047 0.76848,-1.76389 0.38805,-0.57342 0.87861,-1.51884 1.09012,-2.10092 0.3713,-1.0218 0.46263,-1.05917 2.64584,-1.08269 2.42686,-0.0262 3.82696,-0.57139 5.95761,-2.32007 0.6748,-0.55383 1.4546,-1.00696 1.7329,-1.00696 0.6222,0 3.56658,-1.69478 3.56658,-2.05292 0,-0.7043 2.19248,-2.52641 3.44614,-2.86399 0.9059,-0.24393 1.98254,-0.96478 2.99185,-2.00315 2.17925,-2.242 3.05923,-2.2899 11.2009,-0.60971 l 6.52639,1.34684 10.58334,0.0373 c 7.23733,0.0255 12.64669,0.23694 17.10972,0.66866 6.25163,0.60473 14.39015,0.59754 15.98414,-0.0141 0.55926,-0.21461 0.59641,6.77241 0.59641,112.16861 V 385.0086 H 105.07344 -26.159898 Z m 0.003,-120.46308 0.003,-20.68114 3.60602,-1.00469 c 1.98331,-0.55259 6.38747,-1.47139 9.78702,-2.04179 3.3995497,-0.5704 7.1334997,-1.28109 8.2976697,-1.57932 2.47666,-0.63445 7.0978,-2.82194 11.81805,-5.59427 3.4987103,-2.05488 4.5021803,-2.4233 10.5604003,-3.87718 2.74932,-0.65979 4.44615,-1.32423 6.70278,-2.62462 1.66185,-0.95765 4.37092,-2.3495 6.02016,-3.09299 l 2.99861,-1.35181 5.46805,0.0194 c 6.60565,0.0235 10.87581,0.57579 14.64028,1.89367 1.55223,0.5434 4.22426,1.4864 5.93786,2.09554 1.7136,0.60914 3.77735,1.1859 4.58611,1.28168 l 1.47048,0.17414 -1.70556,-0.49843 c -0.93806,-0.27414 -1.77429,-0.56716 -1.8583,-0.65117 -0.084,-0.084 1.001,-0.0997 2.41112,-0.0349 1.41012,0.0648 4.07284,0.17572 5.91716,0.24652 4.0131,0.15406 5.03997,0.6038 6.8762,3.01162 1.35547,1.77741 3.35243,3.51386 3.35243,2.91509 0,-0.42029 4.80624,1.36681 6.78103,2.52139 0.83009,0.48532 2.16774,1.07893 2.97256,1.31913 1.79442,0.53555 2.97666,1.59574 4.2233,3.78727 0.52392,0.92104 1.45793,2.23025 2.07557,2.90935 2.23676,2.45932 3.596438,5.23412 3.397588,6.93367 -0.0489,0.41803 0.0644,0.85481 0.25178,0.97062 0.1954,0.12077 0.26196,-0.0905 0.15607,-0.49547 -0.27918,-1.0676 0.33115,-0.84257 1.20123,0.4429 1.40817,2.08046 1.40251,2.37883 -0.0452,2.37883 -2.212568,0 -4.422248,-1.43059 -5.535778,-3.58399 -0.26682,-0.51598 -1.45832,-1.65261 -2.64778,-2.52583 -2.41575,-1.77349 -4.11953,-3.77729 -3.83942,-4.51552 0.14568,-0.38394 -0.32008,-0.48933 -2.19821,-0.49743 -2.84247,-0.0123 -6.79259,-1.32394 -7.05938,-2.34415 -0.20322,-0.77711 -0.0726,-0.77288 -1.52322,-0.0492 -1.49031,0.74346 -4.42201,0.99961 -5.71617,0.49943 -0.53879,-0.20823 -1.10581,-0.71973 -1.26004,-1.13667 -0.27568,-0.74523 -0.29367,-0.74124 -1.06184,0.23532 -1.04418,1.32747 -1.99459,1.95911 -3.4374,2.28452 -1.21827,0.27477 -1.67719,-0.10179 -0.61896,-0.50787 0.31882,-0.12234 0.49116,-0.31094 0.383,-0.4191 -0.10817,-0.10817 -0.55682,-0.004 -0.997,0.23165 -0.69305,0.37091 -0.88624,0.32222 -1.44132,-0.36328 -1.14543,-1.41454 -0.71084,0.1015 0.69611,2.42835 2.11799,3.50278 4.40327,5.85569 7.05088,7.25955 3.94377,2.09113 5.45587,3.3928 6.73999,5.80207 0.64418,1.20859 1.18641,2.73303 1.20497,3.38763 0.0414,1.46053 -0.93653,2.63561 -2.18832,2.62951 -0.9095,-0.004 -4.00822,-2.19126 -7.53522,-5.31774 -1.52793,-1.35442 -1.63224,-1.54371 -1.14652,-2.08042 0.29388,-0.32474 0.52797,-0.81606 0.52021,-1.09183 -0.008,-0.27576 -0.25097,-0.0648 -0.54044,0.46875 -0.28947,0.53358 -0.65925,0.97014 -0.82174,0.97014 -0.16248,0 -1.09644,-0.63777 -2.07546,-1.41728 -2.23384,-1.77861 -4.90748,-2.97131 -8.17816,-3.64825 -1.39931,-0.28962 -2.88448,-0.81617 -3.30037,-1.17011 -0.66828,-0.56873 -0.7006,-0.57177 -0.27807,-0.0262 0.42506,0.54889 0.38526,0.6171 -0.35886,0.61503 -0.92302,-0.003 -2.47978,-0.91652 -3.34912,-1.96626 -0.48701,-0.58806 -0.48521,-0.5495 0.0136,0.29289 0.69227,1.16898 0.31892,1.22233 -1.62258,0.23186 -1.95218,-0.99593 -4.66704,-3.5861 -6.34408,-6.05269 -0.75854,-1.11566 -1.55143,-2.02847 -1.76199,-2.02847 -0.26265,0 -0.25435,0.1548 0.0264,0.49312 0.53293,0.64214 -0.76457,1.70259 -3.07726,2.51506 -4.39421,1.54373 -5.30901,2.29677 -10.48807,8.63349 -5.95448,7.28547 -8.13453,9.02513 -17.39803,13.88344 -5.2760903,2.76709 -5.8101703,3.14406 -12.0647703,8.51578 -7.02058,6.02956 -12.1898397,8.50875 -20.8829197,10.01547 l -3.79236,0.65731 z m 105.40744,-2.58364 c 0.23283,-0.23283 0.4108,-0.82815 0.39548,-1.32292 l -0.0279,-0.89958 -0.35432,0.97014 c -0.40376,1.10549 -1.67716,1.32664 -2.42818,0.42171 -0.25034,-0.30164 -0.78571,-0.71842 -1.18973,-0.92619 -0.48213,-0.24795 -0.31677,0.0618 0.48117,0.9012 1.2403,1.30482 2.3659,1.61317 3.12343,0.85564 z m -1.97997,-4.61184 c 1.05364,0.38574 1.10123,0.37682 0.48379,-0.0907 -0.95647,-0.72428 -2.22065,-0.64625 -2.65419,0.16382 -0.5927,1.10749 -0.40303,1.3276 0.32616,0.3785 0.62381,-0.81194 0.76532,-0.84659 1.84424,-0.45159 z m -53.12978,-10.66731 c 3.34673,-2.87588 6.66579,-4.99274 9.41482,-6.00466 2.44281,-0.89921 1.79116,-1.03852 -0.79018,-0.16894 -2.60405,0.87725 -5.22363,2.32972 -7.47751,4.14606 -2.52918,2.03821 -8.40893,7.18976 -8.40893,7.36751 0,0.36233 4.33875,-2.82817 7.2618,-5.33997 z m 16.36143,-8.65545 c -0.62178,-0.78506 -1.20678,-1.35111 -1.29999,-1.2579 -0.23547,0.23547 1.67122,2.68527 2.08994,2.68527 0.18731,0 -0.16817,-0.64232 -0.78995,-1.42737 z m 0.67214,-1.13026 c -1.24872,-2.12896 -1.75958,-2.80964 -1.95899,-2.61022 -0.22464,0.22464 2.35709,4.4623 2.71859,4.4623 0.1797,0 -0.16212,-0.83344 -0.7596,-1.85208 z m 48.72963,0.97919 c 0,-0.29748 -2.17572,-1.30232 -2.37922,-1.09882 -0.10834,0.10835 0.34298,0.43134 1.00293,0.71776 1.3928,0.6045 1.37629,0.59993 1.37629,0.38106 z m -12.01061,-6.21288 c -0.21658,-0.40467 -0.48291,-0.64664 -0.59185,-0.53769 -0.10894,0.10894 0.003,0.44004 0.24817,0.73577 0.63422,0.7642 0.80576,0.66533 0.34368,-0.19808 z m 54.079358,49.89102 c -0.27678,-0.11168 -0.44097,-0.89109 -0.44097,-2.09328 0,-1.05344 -0.31022,-3.03481 -0.68938,-4.40305 -0.57027,-2.05791 -0.62935,-2.83422 -0.34195,-4.49345 0.41421,-2.39128 0.92209,-3.7024 1.33526,-3.44705 0.31398,0.19405 3.58859,-0.26883 4.81135,-0.68011 0.64976,-0.21855 0.64429,-0.1859 -0.0692,0.41288 -0.62338,0.52319 -0.77582,1.02922 -0.78033,2.59048 -0.003,1.06715 -0.16565,2.47831 -0.36126,3.13591 -0.19561,0.6576 -0.26018,2.1091 -0.14349,3.22556 0.4472,4.2786 -0.95428,6.70672 -3.32006,5.75211 z m 2.18341,-7.69416 c -0.13722,-0.73145 -0.37664,-1.16383 -0.549,-0.99146 -0.17237,0.17236 -0.12158,0.79336 0.11646,1.424 0.54086,1.43289 0.74433,1.22942 0.43254,-0.43254 z m 2.4394,7.13405 c -0.36833,-0.5168 -0.29921,-6.73137 0.11569,-10.40316 l 0.28859,-2.55386 2.8574,-3.09059 c 2.18055,-2.3585 3.40598,-3.36217 5.17328,-4.23711 1.27374,-0.63059 2.6533,-1.14653 3.06569,-1.14653 1.29303,0 3.65964,1.40663 5.24473,3.1173 l 1.52444,1.6452 -1.10041,-1.67569 c -0.60523,-0.92164 -1.02881,-1.6757 -0.9413,-1.6757 0.0875,0 0.98366,0.83344 1.99143,1.85208 l 1.8323,1.85209 -1.5335,-2.00627 c -1.03845,-1.35858 -2.07582,-2.26212 -3.2134,-2.79881 -1.18607,-0.55956 -1.54903,-0.88428 -1.23472,-1.10462 0.85938,-0.60245 -3.42839,-0.0107 -5.39061,0.7439 -1.07537,0.41358 -2.90099,1.54106 -4.05694,2.50552 -3.77079,3.14616 -4.85576,3.65812 -8.06645,3.80632 -2.41761,0.1116 -3.03138,0.0206 -4.00844,-0.59452 -1.2689,-0.79879 -2.05208,-2.1486 -1.73145,-2.98413 0.1134,-0.29552 1.04708,-0.96021 2.07484,-1.47707 1.02777,-0.51687 2.58304,-1.44838 3.45616,-2.07002 0.87313,-0.62165 3.28949,-1.95204 5.36969,-2.95644 3.40349,-1.64332 3.93116,-2.02915 5.27002,-3.85335 0.81831,-1.11495 1.75351,-2.21929 2.07822,-2.4541 0.67966,-0.49147 1.59067,-2.4918 1.27749,-2.80498 -0.11587,-0.11587 -0.39327,0.19011 -0.61646,0.67996 -0.22319,0.48984 -0.89104,1.24937 -1.48412,1.68786 -0.93021,0.68773 -1.22243,0.74284 -2.12753,0.4012 l -1.04921,-0.39603 0.80801,0.86008 c 0.69038,0.73489 0.7392,0.943 0.33532,1.42964 -0.46524,0.56058 -1.43736,0.56079 -2.98226,6.7e-4 -0.61139,-0.22167 -0.5944,-0.15771 0.12728,0.47927 0.45805,0.4043 1.06274,0.73508 1.34373,0.73508 1.03388,0 -0.0416,0.81775 -2.6221,1.99372 -1.45535,0.66322 -2.71124,1.14071 -2.79087,1.06108 -0.0796,-0.0796 0.35035,-0.56141 0.95552,-1.07062 1.08564,-0.91351 1.08888,-0.92584 0.24345,-0.92584 -1.43733,0 -3.18624,-1.45408 -4.24306,-3.52778 -0.94172,-1.84785 -0.97901,-1.87857 -0.78292,-0.64487 0.11917,0.74976 0.0501,1.39167 -0.16389,1.52395 -0.50707,0.31338 -5.60553,-0.51783 -6.7742,-1.10442 -0.5218,-0.2619 -1.21362,-0.83428 -1.53738,-1.27195 l -0.58865,-0.79577 0.2226,0.97578 c 0.18793,0.82382 0.0804,1.02984 -0.69045,1.32292 -0.50218,0.19092 -1.81553,0.34986 -2.91855,0.35318 -1.10303,0.003 -3.19614,0.31811 -4.65134,0.69951 -3.19111,0.83638 -5.32381,0.88948 -6.7203,0.16733 -1.91837,-0.99202 -1.13118,-2.3359 1.9578,-3.34233 0.77611,-0.25286 1.74122,-0.67433 2.14468,-0.93658 0.40347,-0.26225 1.59409,-0.73213 2.64583,-1.04418 1.05175,-0.31205 2.66646,-0.94928 3.58826,-1.41607 1.59033,-0.80531 2.01186,-0.84897 8.24686,-0.85415 4.14377,-0.003 6.8421,-0.15062 7.30518,-0.39845 0.40387,-0.21614 1.93153,-0.51758 3.3948,-0.66985 4.39189,-0.45703 6.10126,-0.97855 9.21575,-2.81164 1.63336,-0.96135 3.52537,-1.84207 4.20447,-1.95716 0.6791,-0.11509 2.42535,-0.62009 3.88056,-1.12222 2.21916,-0.76574 3.34986,-0.9242 7.01162,-0.98267 l 4.3658,-0.0697 2.77614,-1.45338 c 2.44999,-1.28263 3.05612,-1.45388 5.15921,-1.45757 2.71679,-0.005 4.7223,-0.49039 8.7052,-2.10788 2.58828,-1.05112 3.2299,-1.15712 8.69954,-1.43722 6.54399,-0.33512 7.81323,-0.64418 13.41849,-3.26748 4.01641,-1.8797 5.64856,-2.41697 10.89455,-3.58623 2.23132,-0.49734 4.85028,-1.31905 5.81991,-1.82604 3.50054,-1.83032 5.40956,-2.29998 10.14329,-2.4955 l 4.49791,-0.18578 v 19.96279 19.96278 l -1.32291,0.27945 c -2.03665,0.43022 -12.50789,0.2746 -16.84514,-0.25034 -2.37602,-0.28758 -8.25739,-0.4882 -15.16945,-0.51746 l -11.28889,-0.0478 -4.7625,-1.15147 c -4.95486,-1.19799 -9.14684,-1.71536 -10.7132,-1.32223 -0.50218,0.12604 -1.5912,0.91607 -2.42006,1.75563 -0.84829,0.85924 -2.23406,1.79304 -3.17033,2.13633 -1.14278,0.41901 -2.11102,1.1446 -3.09392,2.31856 -1.00567,1.20117 -1.91311,1.87311 -3.05503,2.2622 -0.89344,0.30443 -2.3544,1.1517 -3.24659,1.88282 -1.52986,1.25369 -1.78327,1.33646 -4.45387,1.45465 -3.14276,0.13909 -3.53864,0.32247 -3.82887,1.77361 -0.11012,0.55064 -0.63526,1.51817 -1.16697,2.15007 -0.88507,1.05185 -0.97072,1.41492 -1.01393,4.29791 -0.0406,2.71224 -0.15211,3.25392 -0.80359,3.9054 -0.68067,0.68068 -0.84679,0.70802 -1.65942,0.27311 -1.88832,-1.0106 -2.6289,-6.91619 -1.25095,-9.97547 0.49144,-1.09109 0.72018,-2.20821 0.65011,-3.175 -0.14218,-1.96189 -0.93679,-1.9695 -1.87461,-0.018 -0.79829,1.66121 -2.20142,3.28883 -2.83521,3.28883 -0.23893,0 -0.50028,0.69626 -0.60281,1.60597 -0.10142,0.89974 -0.63972,2.34385 -1.22411,3.28394 -0.68889,1.1082 -1.12645,2.38729 -1.2886,3.76689 -0.13503,1.1489 -0.48161,2.44925 -0.77018,2.88967 -0.57148,0.87219 -1.98956,1.07625 -2.50019,0.35978 z m 2.34456,-7.32014 c 0.20768,-0.38805 0.29822,-0.70555 0.20121,-0.70555 -0.097,0 -0.34631,0.3175 -0.55399,0.70555 -0.20768,0.38806 -0.29823,0.70556 -0.20122,0.70556 0.097,0 0.34631,-0.3175 0.554,-0.70556 z m 10.00214,-0.0616 c -0.52893,-0.25601 -0.95483,-0.25204 -1.41111,0.0131 -0.54372,0.316 -0.41642,0.37762 0.75758,0.36668 1.2312,-0.0115 1.31452,-0.0599 0.65353,-0.37982 z m 0.32332,-2.6392 c -0.23884,-0.0966 -0.71509,-0.10252 -1.05833,-0.0131 -0.34325,0.0894 -0.14783,0.1685 0.43425,0.17569 0.58209,0.007 0.86292,-0.066 0.62408,-0.16262 z m -7.10547,-3.91374 c 0.43881,-0.55953 0.42634,-0.57201 -0.13319,-0.1332 -0.33955,0.2663 -0.61736,0.54411 -0.61736,0.61737 0,0.29034 0.2897,0.10347 0.75055,-0.48417 z m 10.53834,-0.78469 c 0,-0.49967 -1.93223,-1.42017 -2.98109,-1.42017 -0.49471,0 -0.89947,0.15875 -0.89947,0.35277 0,0.19403 0.35719,0.35512 0.79375,0.35798 0.43657,0.003 1.19063,0.22542 1.6757,0.49458 1.09363,0.60684 1.41111,0.65518 1.41111,0.21484 z m -19.82506,-2.15625 c 1.70223,-1.25183 1.84046,-1.97788 0.59867,-3.14448 -0.48507,-0.4557 -0.88194,-0.66156 -0.88194,-0.45747 0,0.2041 0.23812,0.56871 0.52916,0.81025 0.29104,0.24154 0.52917,0.62815 0.52917,0.85914 0,0.47017 -1.56499,2.01437 -2.64584,2.61069 -0.52169,0.28783 -0.56278,0.39207 -0.15769,0.4 0.30133,0.006 1.21414,-0.47926 2.02847,-1.07813 z m -3.80671,-1.37248 c -0.32501,-0.60728 -0.21259,-0.76458 0.86953,-1.21672 1.77512,-0.74169 1.53719,-0.96554 -0.34471,-0.32432 -1.77655,0.60534 -1.8263,0.68433 -1.00365,1.59335 0.75991,0.83969 0.94537,0.81943 0.47883,-0.0523 z m 17.33088,-0.74403 c -1.21662,-0.98633 -1.676,-0.82705 -0.50976,0.17674 0.5444,0.46857 1.06919,0.7724 1.1662,0.67519 0.097,-0.0972 -0.19838,-0.48058 -0.65644,-0.85193 z m 16.95065,-0.95329 c 0.16327,-0.16327 -0.61832,-0.23148 -1.73687,-0.15159 -1.48242,0.10588 -2.55402,-0.053 -3.95307,-0.58613 -1.46951,-0.55998 -1.79171,-0.60377 -1.37476,-0.18682 0.95695,0.95696 3.18947,1.57515 5.03098,1.3931 0.95528,-0.0944 1.87046,-0.30529 2.03372,-0.46856 z m -24.4155,-0.9477 c 0.39232,-0.47272 0.33784,-0.69279 -0.35378,-1.42899 -0.96624,-1.02851 -1.45887,-0.85126 -0.51937,0.18688 0.62599,0.69171 0.62023,0.73706 -0.20795,1.63754 -0.76264,0.82921 -0.7749,0.88621 -0.1172,0.54473 0.40401,-0.20977 0.94325,-0.63284 1.1983,-0.94016 z m -3.69872,-0.54025 c -0.35226,-0.38925 -0.71699,-0.63121 -0.8105,-0.5377 -0.23704,0.23705 0.64284,1.24542 1.08672,1.24542 0.20034,0 0.076,-0.31848 -0.27622,-0.70772 z m 1.58946,-0.11955 c 0,-0.0669 -0.35719,-0.42413 -0.79375,-0.79375 l -0.79375,-0.67204 0.67204,0.79375 c 0.63154,0.74593 0.91546,0.95435 0.91546,0.67204 z m 5.79888,-0.57028 c 0.61582,-0.38059 2.93316,-1.42082 5.14965,-2.31161 3.92508,-1.57747 5.27925,-2.37515 5.27925,-3.10979 0,-0.19778 -0.35719,-0.0248 -0.79375,0.3843 -0.43657,0.40914 -1.98438,1.17087 -3.43959,1.69273 -2.81635,1.00999 -5.15445,2.13517 -6.87916,3.3105 -1.35281,0.92189 -0.79774,0.94939 0.6836,0.0339 z m 22.05532,-0.45454 c 2.42863,-1.47029 4.58401,-4.44057 4.81679,-6.63786 l 0.16571,-1.56422 -0.71126,1.74315 c -0.88729,2.17461 -3.57493,4.99139 -5.66711,5.93942 -1.80327,0.81711 -4.83249,0.93039 -6.87286,0.25701 -2.03416,-0.67134 -1.84655,-0.14794 0.23341,0.65116 1.10799,0.42568 2.75052,0.72864 4.00922,0.73949 1.8006,0.0155 2.42687,-0.15997 4.0261,-1.12815 z m 7.77095,-4.51868 c 0.003,-0.69052 -0.24094,-1.56365 -0.54203,-1.94028 -0.52429,-0.65584 -0.53547,-0.6475 -0.26458,0.19716 0.15557,0.48507 0.26216,1.57495 0.23687,2.42196 -0.0295,0.98775 0.0634,1.36728 0.25918,1.05833 0.16784,-0.26492 0.30759,-1.04665 0.31056,-1.73717 z m 33.791,-1.91535 c 0.0524,-0.0425 -2.06568,-0.18928 -4.70689,-0.32627 -2.64121,-0.13699 -6.89097,-0.56112 -9.44392,-0.9425 -8.85238,-1.32243 -10.23212,-1.44275 -13.28478,-1.15847 l -2.99862,0.27925 4.58612,0.23719 c 2.52236,0.13046 6.33884,0.57858 8.48108,0.99583 4.65566,0.90679 10.98053,1.41224 14.62586,1.16883 1.45521,-0.0972 2.68872,-0.21141 2.74115,-0.25386 z m -46.20349,-0.32545 c 2.08978,-1.09175 3.63718,-3.45186 3.56301,-5.43432 -0.029,-0.77557 -0.0933,-0.70085 -0.35489,0.41245 -0.43687,1.85937 -1.53331,3.296 -3.43679,4.50316 -1.64306,1.04199 -1.48018,1.41146 0.22867,0.51871 z m -44.36178,-2.81414 c 0.72431,-0.49218 2.18827,-0.99008 3.52147,-1.19767 2.2658,-0.3528 5.27582,-1.40384 4.17825,-1.45896 -0.31515,-0.0158 -1.24792,0.20935 -2.07282,0.50039 -0.8249,0.29104 -1.93247,0.52917 -2.46126,0.52917 -0.52879,0 -1.73914,0.41987 -2.68967,0.93305 -0.95053,0.51318 -2.20449,1.05255 -2.78657,1.19861 l -1.05834,0.26556 1.06464,0.0361 c 0.59235,0.0201 1.61456,-0.33757 2.3043,-0.80626 z m 61.43911,-1.06763 c 3.37619,-0.69462 8.57909,-0.70424 14.56695,-0.0269 4.90279,0.55458 12.13187,0.64249 13.58195,0.16517 0.53174,-0.17504 -0.23872,-0.21862 -1.94028,-0.10976 -1.62147,0.10374 -4.84848,-0.0624 -7.58472,-0.39062 -10.71802,-1.28545 -11.83355,-1.35368 -15.23897,-0.93196 -1.80503,0.22352 -3.75811,0.49859 -4.3402,0.61126 -1.02225,0.19787 -1.03428,0.18535 -0.35278,-0.36711 0.67292,-0.54549 0.6566,-0.55453 -0.35277,-0.19537 -1.42304,0.50635 -3.83325,1.93153 -4.37936,2.58955 -0.36122,0.43525 -0.0967,0.41213 1.43924,-0.12578 1.03498,-0.36245 3.1054,-0.91076 4.60094,-1.21846 z m -5.81353,-6.25599 c 4.5777,-4.2445 5.82886,-4.63565 8.86073,-2.77012 0.94601,0.58208 2.01995,1.0458 2.38655,1.03048 0.49463,-0.0207 0.53006,-0.0768 0.13737,-0.21756 -0.29104,-0.10434 -1.34734,-0.74268 -2.34733,-1.41854 -3.1659,-2.13971 -5.34181,-1.49114 -9.63692,2.87246 -2.34505,2.38245 -3.5426,2.87874 -4.1834,1.73369 -0.29091,-0.51983 -0.37604,-0.49525 -0.75828,0.21896 -0.27533,0.51447 -0.2917,0.71871 -0.0454,0.56649 0.21185,-0.13093 0.66425,-0.0755 1.00533,0.12309 1.18615,0.69075 1.87776,0.36785 4.58134,-2.13895 z m -99.392478,22.80035 c -0.53423,-0.6437 -0.5904,-3.24405 -0.0811,-3.75338 0.43002,-0.43002 1.36434,-0.008 2.32043,1.04871 0.58764,0.64934 0.59547,0.79046 0.0973,1.75382 -0.29797,0.57621 -0.79875,1.14627 -1.11283,1.2668 -0.75246,0.28874 -0.71367,0.29876 -1.22383,-0.31595 z m 16.65798,-0.54129 c -1.01507,-0.40581 -1.83526,-2.31887 -1.84016,-4.29215 -0.003,-1.25107 -0.20939,-1.71041 -1.20052,-2.67327 -0.65822,-0.63945 -1.297,-1.59195 -1.41951,-2.11667 -0.46154,-1.97688 -1.01441,-2.88977 -2.15918,-3.5652 -0.71548,-0.42214 -1.5364,-1.3994 -2.08507,-2.48214 -0.49773,-0.98222 -1.05738,-1.78586 -1.24367,-1.78586 -0.18628,0 -0.61135,-0.41612 -0.94459,-0.92471 -0.57757,-0.88148 -0.57479,-0.94746 0.0593,-1.41112 0.84049,-0.61458 0.42141,-0.6081 -1.58633,0.0245 -0.87737,0.27645 -1.25341,0.51077 -0.84063,0.52381 1.08247,0.0342 2.60451,2.48671 2.60451,4.19673 0,0.75131 0.17711,1.87407 0.39357,2.49501 0.21646,0.62094 0.32114,1.20142 0.23261,1.28994 -0.0885,0.0885 -1.25037,-0.55458 -2.58188,-1.42912 -1.33151,-0.87454 -2.56595,-1.59007 -2.7432,-1.59007 -0.17725,0 -0.23666,-0.32738 -0.13203,-0.72751 0.1301,-0.49749 -0.26333,-1.33402 -1.24436,-2.64583 -1.44608,-1.93365 -2.15545,-2.25821 -3.43684,-1.57244 -0.51022,0.27306 -0.76031,0.1719 -1.18774,-0.48045 -0.52797,-0.80578 -0.50705,-0.83665 0.84096,-1.24052 0.76032,-0.2278 1.81262,-0.78424 2.33844,-1.23653 0.8956,-0.77037 1.03212,-0.79057 2.15931,-0.3196 1.48067,0.61866 4.19131,0.66972 5.88473,0.11084 1.57483,-0.51974 2.12899,-0.14104 2.46776,1.68641 0.32547,1.75567 1.446,3.50835 2.6366,4.12403 0.83192,0.43021 1.00763,0.79229 1.2068,2.48692 0.27823,2.3673 1.01747,4.25566 2.1371,5.45912 0.45127,0.48507 0.92558,1.47346 1.05402,2.19642 0.12843,0.72296 0.66813,2.15171 1.19933,3.175 1.38532,2.66863 1.22385,3.4413 -0.56932,2.72443 z m 2.32457,-1.68655 c -0.98347,-1.16878 -2.58385,-5.76654 -2.28148,-6.5545 0.13033,-0.33963 -0.0607,-0.5541 -0.55822,-0.62657 -0.41601,-0.0606 -1.05303,-0.61957 -1.4156,-1.24217 -0.8279,-1.42167 -1.2243,-4.83208 -0.64305,-5.53245 0.34303,-0.41332 0.22779,-0.54588 -0.64031,-0.73654 -1.5235,-0.33462 -2.74237,-1.41739 -3.21805,-2.85872 -0.22741,-0.68906 -0.33394,-1.33238 -0.23672,-1.4296 0.0972,-0.0972 1.01497,0.0722 2.03946,0.37642 1.0245,0.30424 2.42922,0.56031 3.12161,0.56905 1.05126,0.0133 1.49699,0.28964 2.70255,1.6757 1.22358,1.40677 1.48104,1.98201 1.68877,3.77333 0.13481,1.16244 0.63426,2.96354 1.10988,4.00244 0.47563,1.03891 1.10527,3.38348 1.39922,5.21016 0.29394,1.82668 0.57359,3.51809 0.62145,3.75867 0.0554,0.27856 -0.44061,0.476 -1.36578,0.54363 -1.24083,0.0907 -1.57986,-0.0448 -2.32373,-0.92885 z m -20.74052,-14.03511 c -1.51835,-1.37174 -1.75232,-2.04597 -0.83247,-2.39895 0.31882,-0.12234 0.59827,-0.17902 0.62102,-0.12594 0.0227,0.0531 0.55565,0.76188 1.18423,1.57512 1.92057,2.48477 1.34659,3.04518 -0.97278,0.94977 z"
                id="path1"/>
    </g>
</svg>
